<svg width="256" height="256" viewBox="0 0 256 256" fill="none" xmlns="http://www.w3.org/2000/svg">
<path d="M132.115 3H127.452V55.4764H132.115V3Z" fill="#D6A165"/>
<path d="M164.149 29.2348H129.779V3H164.149L154.823 15.8247L164.149 29.2348Z" fill="#D6A165"/>
<path d="M107.867 55.4764H78.7462V84.5975H107.867V55.4764Z" fill="#D6A165"/>
<path d="M143.843 55.4764H114.722V84.5975H143.843V55.4764Z" fill="#D6A165"/>
<path d="M179.819 55.4764H150.698V84.5975H179.819V55.4764Z" fill="#D6A165"/>
<path d="M139.568 113.548C137.86 112.5 136.43 111.465 135.15 110.471C134.885 110.267 134.579 110.049 134.327 109.845C134.061 109.627 133.844 109.423 133.592 109.212C132.659 108.416 131.835 107.653 131.182 107C129.48 105.278 128.704 104.127 128.704 104.127C128.704 104.127 128.085 105.039 126.75 106.455C126.526 106.693 126.288 106.945 126.022 107.204C125.498 107.728 124.885 108.307 124.191 108.913C123.844 109.219 123.476 109.532 123.081 109.845C122.156 110.601 121.06 111.397 119.882 112.2C119.344 112.568 118.8 112.936 118.214 113.303C118.085 113.385 117.969 113.467 117.833 113.548C105.376 121.179 81.1765 128.64 40 115.182L40.5582 116.87L70.3327 171.402C88.1538 160.477 108.357 154.929 128.602 154.841C148.697 154.752 168.791 160.034 186.579 170.599L216.748 115.379C175.98 128.544 151.957 121.138 139.568 113.548Z" fill="#D6A165"/>
<path d="M138.071 231.673C135.688 229.27 132.441 227.929 129.058 227.963C129.058 227.963 129.058 227.963 129.058 227.956C125.797 227.956 122.687 229.291 120.372 231.585C115.464 236.452 115.423 244.375 120.29 249.29C125.158 254.205 133.081 254.239 137.989 249.378C142.904 244.511 142.938 236.581 138.071 231.673Z" fill="#2558A6"/>
<path d="M77.453 184.438L86.1457 200.36C111.074 181.211 145.606 180.96 170.786 199.502L179.458 183.635C164.237 173.097 146.43 167.849 128.622 167.924C110.652 167.999 92.701 173.513 77.453 184.438Z" fill="#2558A6"/>
<path d="M128.309 199.38C115.634 199.536 103.014 203.879 92.7079 212.381L101.55 228.576C116.533 213.797 140.12 213.484 155.477 227.541L164.265 211.462C154.558 203.872 142.924 199.849 131.175 199.414C130.215 199.352 129.262 199.353 128.309 199.38Z" fill="#2558A6"/>
<path d="M90.0258 113.303V89.4374H60.9048V112.364C72.2115 114.284 81.8572 114.338 90.0258 113.303Z" fill="#D6A165"/>
<path d="M118.214 103.535C118.793 103.168 119.344 102.8 119.875 102.426C121.053 101.622 122.149 100.826 123.075 100.07C123.47 99.7503 123.837 99.4372 124.184 99.1377C124.831 98.5727 125.382 98.0485 125.879 97.5516V89.4307H96.7651V112.119C105.894 110.124 112.83 106.837 117.833 103.773C117.969 103.698 118.085 103.617 118.214 103.535Z" fill="#D6A165"/>
<path d="M134.327 100.07C134.579 100.274 134.885 100.485 135.151 100.696C136.43 101.69 137.867 102.732 139.569 103.773C144.783 106.966 152.08 110.41 161.794 112.364V89.4237H132.673V98.6202C132.972 98.8857 133.265 99.1579 133.592 99.437C133.844 99.6549 134.062 99.8523 134.327 100.07Z" fill="#D6A165"/>
<path d="M197.661 112.119V89.4307H168.546V113.419C176.735 114.338 186.395 114.147 197.661 112.119Z" fill="#D6A165"/>
</svg>
