<svg width="256" height="256" viewBox="0 0 256 256" fill="none" xmlns="http://www.w3.org/2000/svg">
<rect width="256" height="256" fill="white"/>
<path d="M130.323 37H126.965V74.783H130.323V37Z" fill="#D6A165"/>
<path d="M153.387 55.8891H128.641V37H153.387L146.673 46.2338L153.387 55.8891Z" fill="#D6A165"/>
<path d="M112.864 74.783H91.8972V95.7501H112.864V74.783Z" fill="#D6A165"/>
<path d="M138.767 74.783H117.8V95.7501H138.767V74.783Z" fill="#D6A165"/>
<path d="M164.67 74.783H143.703V95.7501H164.67V74.783Z" fill="#D6A165"/>
<path d="M135.689 116.595C134.459 115.84 133.43 115.095 132.508 114.379C132.317 114.232 132.097 114.076 131.915 113.928C131.724 113.772 131.567 113.625 131.386 113.473C130.715 112.899 130.121 112.35 129.651 111.88C128.426 110.64 127.867 109.812 127.867 109.812C127.867 109.812 127.421 110.468 126.46 111.488C126.299 111.659 126.127 111.841 125.936 112.027C125.558 112.404 125.117 112.821 124.617 113.257C124.368 113.478 124.103 113.703 123.819 113.928C123.152 114.473 122.363 115.046 121.515 115.624C121.128 115.889 120.736 116.154 120.314 116.418C120.221 116.477 120.138 116.536 120.04 116.595C111.071 122.089 93.6471 127.461 64 117.771L64.4019 118.986L85.8396 158.25C98.6708 150.383 113.217 146.389 127.793 146.325C142.262 146.261 156.73 150.065 169.537 157.671L191.258 117.913C161.905 127.392 144.609 122.06 135.689 116.595Z" fill="#D6A165"/>
<path d="M134.611 201.645C132.896 199.914 130.558 198.949 128.122 198.973C128.122 198.973 128.122 198.973 128.122 198.969C125.774 198.969 123.534 199.929 121.868 201.581C118.334 205.085 118.305 210.79 121.809 214.329C125.314 217.867 131.018 217.892 134.552 214.392C138.091 210.888 138.115 205.178 134.611 201.645Z" fill="#2558A6"/>
<path d="M90.9662 167.635L97.225 179.099C115.173 165.312 140.037 165.131 158.166 178.482L164.41 167.057C153.451 159.47 140.63 155.691 127.808 155.745C114.869 155.799 101.945 159.769 90.9662 167.635Z" fill="#2558A6"/>
<path d="M127.583 178.393C118.457 178.506 109.37 181.633 101.95 187.755L108.316 199.414C119.104 188.774 136.086 188.549 147.143 198.669L153.471 187.093C146.481 181.628 138.105 178.732 129.646 178.418C128.955 178.374 128.269 178.374 127.583 178.393Z" fill="#2558A6"/>
<path d="M100.019 116.418V99.2349H79.0515V115.742C87.1923 117.124 94.1373 117.163 100.019 116.418Z" fill="#D6A165"/>
<path d="M120.314 109.385C120.731 109.121 121.128 108.856 121.51 108.586C122.358 108.008 123.147 107.435 123.814 106.89C124.098 106.66 124.363 106.435 124.613 106.219C125.078 105.812 125.475 105.435 125.833 105.077V99.23H104.871V115.566C111.443 114.129 116.438 111.762 120.04 109.557C120.138 109.503 120.221 109.444 120.314 109.385Z" fill="#D6A165"/>
<path d="M131.915 106.891C132.097 107.038 132.317 107.189 132.508 107.341C133.43 108.057 134.464 108.807 135.689 109.557C139.444 111.855 144.698 114.335 151.692 115.742V99.2251H130.724V105.847C130.94 106.038 131.151 106.234 131.386 106.435C131.567 106.592 131.724 106.734 131.915 106.891Z" fill="#D6A165"/>
<path d="M177.516 115.566V99.23H156.553V116.502C162.449 117.163 169.404 117.026 177.516 115.566Z" fill="#D6A165"/>
</svg>
